# xmcd CD database file
#
# Track frame offsets:
#	150
#	27407
#	38102
#	61950
#	92787
#	111512
#	135190
#	170075
#	192890
#	220100
#	244137
#	262275
#	285540
#	299477
#	314120
#
# Disc length: 4500 seconds
#
# Revision: 1
# Processed by: cddbd v1.5.1PL0 Copyright (c) Steve Scherf et al.
# Submitted via: CDex 1.51
#
DISCID=ef11920f
DTITLE=Bruce Springsteen - Where The Human Spirit Sings Vol. 2
DYEAR=1992
DGENRE=Rock
TTITLE0=The River (With Sting)
TTITLE1=Human Spirit
TTITLE2=My Hometown
TTITLE3=Tunnel Of Love
TTITLE4=Boom Boom
TTITLE5=Adam Raised A Chain
TTITLE6=Cover Me
TTITLE7=Brilliant Disguise
TTITLE8=Tougher Than The Rest
TTITLE9=Chimes Of Freedom (Tracy Chapman, Peter Gabriel)
TTITLE10=Get Up, Stand Up (Sting, Peter Gabriel)
TTITLE11=The Promised Land
TTITLE12=Blowin` In The Wind
TTITLE13=Bad Moon Rising
TTITLE14=Across The Borderline (Jackson Browne, Bonnie Riatt)
EXTD=YEAR: 1992
EXTT0=
EXTT1=
EXTT2=
EXTT3=
EXTT4=
EXTT5=
EXTT6=
EXTT7=
EXTT8=
EXTT9=
EXTT10=
EXTT11=
EXTT12=
EXTT13=
EXTT14=
PLAYORDER=
